G04 #@! TF.FileFunction,Copper,L2,Bot,Signal*
%FSLAX46Y46*%
G04 Gerber Fmt 4.6, Leading zero omitted, Abs format (unit mm)*
G04 Created by KiCad (PCBNEW (2015-08-05 BZR 6055, Git fa29c62)-product) date 8/14/2015 8:31:27 AM*
%MOMM*%
G01*
G04 APERTURE LIST*
%ADD10C,0.100000*%
%ADD11R,2.000000X1.700000*%
%ADD12R,1.500000X1.250000*%
%ADD13R,1.250000X1.500000*%
%ADD14R,1.700000X2.000000*%
%ADD15R,2.301240X3.500120*%
%ADD16R,1.500000X1.300000*%
%ADD17R,1.699260X1.198880*%
%ADD18O,1.699260X1.198880*%
%ADD19R,1.198880X1.699260*%
%ADD20O,1.198880X1.699260*%
%ADD21R,1.727200X1.727200*%
%ADD22O,1.727200X1.727200*%
%ADD23R,6.299200X2.199640*%
%ADD24C,2.300000*%
%ADD25C,0.900000*%
%ADD26R,1.727200X2.032000*%
%ADD27O,1.727200X2.032000*%
%ADD28R,1.300000X1.500000*%
%ADD29R,4.000000X1.200000*%
%ADD30R,4.000000X1.400000*%
%ADD31R,1.500000X0.600000*%
%ADD32R,0.800100X1.800860*%
%ADD33R,1.450000X0.450000*%
%ADD34R,0.650000X1.060000*%
G04 APERTURE END LIST*
D10*
D11*
X154210000Y-102870000D03*
X158210000Y-102870000D03*
D12*
X120670000Y-102870000D03*
X123170000Y-102870000D03*
D13*
X167005000Y-88920000D03*
X167005000Y-91420000D03*
X139065000Y-94595000D03*
X139065000Y-92095000D03*
D12*
X174605000Y-88265000D03*
X172105000Y-88265000D03*
X174605000Y-90805000D03*
X172105000Y-90805000D03*
D11*
X119285000Y-97790000D03*
X123285000Y-97790000D03*
D12*
X132735000Y-97155000D03*
X135235000Y-97155000D03*
X120035000Y-60325000D03*
X122535000Y-60325000D03*
X132735000Y-93345000D03*
X135235000Y-93345000D03*
X152420000Y-66675000D03*
X154920000Y-66675000D03*
D11*
X105505000Y-95313500D03*
X101505000Y-95313500D03*
D13*
X140970000Y-74910000D03*
X140970000Y-72410000D03*
X101600000Y-82570000D03*
X101600000Y-85070000D03*
D14*
X97790000Y-86455000D03*
X97790000Y-82455000D03*
D15*
X93281500Y-80865980D03*
X93281500Y-86266020D03*
D16*
X97710000Y-79375000D03*
X100410000Y-79375000D03*
D17*
X91884500Y-72296020D03*
D18*
X91884500Y-68292980D03*
X91884500Y-70294500D03*
D17*
X169545000Y-104505760D03*
D18*
X169545000Y-102504240D03*
D19*
X162194240Y-100330000D03*
D20*
X164195760Y-100330000D03*
D21*
X130175000Y-105410000D03*
D22*
X130175000Y-102870000D03*
X132715000Y-105410000D03*
X132715000Y-102870000D03*
X135255000Y-105410000D03*
X135255000Y-102870000D03*
D23*
X95377000Y-96093280D03*
X95377000Y-91993720D03*
D24*
X175665000Y-95885000D03*
X168505000Y-95885000D03*
D25*
X170785000Y-95665000D03*
X171435000Y-96665000D03*
X172085000Y-95665000D03*
X172735000Y-96665000D03*
X173385000Y-95665000D03*
D26*
X116840000Y-80010000D03*
D27*
X119380000Y-80010000D03*
X121920000Y-80010000D03*
X124460000Y-80010000D03*
X127000000Y-80010000D03*
X129540000Y-80010000D03*
D28*
X165100000Y-96600000D03*
X165100000Y-93900000D03*
X143510000Y-97710000D03*
X143510000Y-100410000D03*
X143510000Y-102790000D03*
X143510000Y-105490000D03*
X162560000Y-97870000D03*
X162560000Y-95170000D03*
X162560000Y-92790000D03*
X162560000Y-90090000D03*
D16*
X97710000Y-104775000D03*
X100410000Y-104775000D03*
X102790000Y-102235000D03*
X105490000Y-102235000D03*
D28*
X158750000Y-68500000D03*
X158750000Y-71200000D03*
D16*
X152320000Y-74930000D03*
X155020000Y-74930000D03*
D28*
X140970000Y-81995000D03*
X140970000Y-79295000D03*
D16*
X102790000Y-98425000D03*
X105490000Y-98425000D03*
D28*
X140335000Y-65485000D03*
X140335000Y-62785000D03*
D16*
X103425000Y-87630000D03*
X106125000Y-87630000D03*
D28*
X104140000Y-85170000D03*
X104140000Y-82470000D03*
D16*
X106125000Y-79375000D03*
X103425000Y-79375000D03*
D29*
X123190000Y-88305000D03*
D30*
X123190000Y-90805000D03*
D29*
X123190000Y-93305000D03*
D31*
X118540000Y-72390000D03*
X118540000Y-71120000D03*
X118540000Y-69850000D03*
X118540000Y-68580000D03*
X118540000Y-67310000D03*
X118540000Y-66040000D03*
X118540000Y-64770000D03*
X118540000Y-63500000D03*
X127840000Y-63500000D03*
X127840000Y-64770000D03*
X127840000Y-66040000D03*
X127840000Y-67310000D03*
X127840000Y-68580000D03*
X127840000Y-69850000D03*
X127840000Y-71120000D03*
X127840000Y-72390000D03*
D32*
X100010000Y-102466140D03*
X98110000Y-102466140D03*
X99060000Y-99463860D03*
D33*
X151216000Y-71460000D03*
X151216000Y-70810000D03*
X151216000Y-70160000D03*
X151216000Y-69510000D03*
X155616000Y-69510000D03*
X155616000Y-70160000D03*
X155616000Y-70810000D03*
X155616000Y-71460000D03*
D34*
X100015000Y-90340000D03*
X100965000Y-90340000D03*
X101915000Y-90340000D03*
X101915000Y-92540000D03*
X100015000Y-92540000D03*
M02*
