G04 #@! TF.FileFunction,Copper,L1,Top,Signal*
%FSLAX46Y46*%
G04 Gerber Fmt 4.6, Leading zero omitted, Abs format (unit mm)*
G04 Created by KiCad (PCBNEW (2015-08-05 BZR 6055, Git fa29c62)-product) date 8/14/2015 8:31:27 AM*
%MOMM*%
G01*
G04 APERTURE LIST*
%ADD10C,0.100000*%
%ADD11R,1.500000X1.250000*%
%ADD12R,1.500000X1.000000*%
%ADD13R,2.200000X1.200000*%
%ADD14R,1.500000X1.300000*%
%ADD15R,1.600000X0.550000*%
%ADD16R,0.550000X1.600000*%
%ADD17R,1.699260X1.198880*%
%ADD18O,1.699260X1.198880*%
%ADD19R,1.198880X1.699260*%
%ADD20O,1.198880X1.699260*%
%ADD21R,1.727200X1.727200*%
%ADD22O,1.727200X1.727200*%
%ADD23C,2.300000*%
%ADD24C,0.900000*%
%ADD25R,1.727200X2.032000*%
%ADD26O,1.727200X2.032000*%
%ADD27R,1.300000X1.500000*%
%ADD28R,0.900000X0.900000*%
%ADD29R,1.600000X2.180000*%
%ADD30R,1.699260X2.100580*%
%ADD31R,1.780540X1.518920*%
%ADD32R,0.728980X0.299720*%
%ADD33R,0.299720X0.728980*%
%ADD34R,1.249680X1.249680*%
%ADD35R,0.600000X1.550000*%
%ADD36R,0.800000X0.220000*%
%ADD37C,17.780000*%
%ADD38R,2.540000X5.080000*%
G04 APERTURE END LIST*
D10*
D11*
X112415000Y-91440000D03*
X114915000Y-91440000D03*
D12*
X136525000Y-64880000D03*
X136525000Y-67380000D03*
X136525000Y-70680000D03*
X136525000Y-72380000D03*
X136525000Y-74880000D03*
X136525000Y-77380000D03*
X136525000Y-79805000D03*
X136525000Y-81505000D03*
X136525000Y-62380000D03*
X136525000Y-69030000D03*
X136525000Y-84855000D03*
D13*
X157525000Y-57355000D03*
X158725000Y-85355000D03*
D14*
X147240000Y-106045000D03*
X149940000Y-106045000D03*
X147240000Y-103505000D03*
X149940000Y-103505000D03*
X147240000Y-100965000D03*
X149940000Y-100965000D03*
D15*
X129862000Y-91053000D03*
X129862000Y-91853000D03*
X129862000Y-92653000D03*
X129862000Y-93453000D03*
X129862000Y-94253000D03*
X129862000Y-95053000D03*
X129862000Y-95853000D03*
X129862000Y-96653000D03*
D16*
X131312000Y-98103000D03*
X132112000Y-98103000D03*
X132912000Y-98103000D03*
X133712000Y-98103000D03*
X134512000Y-98103000D03*
X135312000Y-98103000D03*
X136112000Y-98103000D03*
X136912000Y-98103000D03*
D15*
X138362000Y-96653000D03*
X138362000Y-95853000D03*
X138362000Y-95053000D03*
X138362000Y-94253000D03*
X138362000Y-93453000D03*
X138362000Y-92653000D03*
X138362000Y-91853000D03*
X138362000Y-91053000D03*
D16*
X136912000Y-89603000D03*
X136112000Y-89603000D03*
X135312000Y-89603000D03*
X134512000Y-89603000D03*
X133712000Y-89603000D03*
X132912000Y-89603000D03*
X132112000Y-89603000D03*
X131312000Y-89603000D03*
D17*
X91884500Y-72296020D03*
D18*
X91884500Y-68292980D03*
X91884500Y-70294500D03*
D17*
X169545000Y-104505760D03*
D18*
X169545000Y-102504240D03*
D19*
X162194240Y-100330000D03*
D20*
X164195760Y-100330000D03*
D21*
X130175000Y-105410000D03*
D22*
X130175000Y-102870000D03*
X132715000Y-105410000D03*
X132715000Y-102870000D03*
X135255000Y-105410000D03*
X135255000Y-102870000D03*
D23*
X175665000Y-95885000D03*
X168505000Y-95885000D03*
D24*
X170785000Y-95665000D03*
X171435000Y-96665000D03*
X172085000Y-95665000D03*
X172735000Y-96665000D03*
X173385000Y-95665000D03*
D25*
X116840000Y-80010000D03*
D26*
X119380000Y-80010000D03*
X121920000Y-80010000D03*
X124460000Y-80010000D03*
X127000000Y-80010000D03*
X129540000Y-80010000D03*
D27*
X165735000Y-90725000D03*
X165735000Y-93425000D03*
D14*
X102155000Y-75565000D03*
X104855000Y-75565000D03*
D27*
X102235000Y-66595000D03*
X102235000Y-69295000D03*
D14*
X156130000Y-93345000D03*
X158830000Y-93345000D03*
X156130000Y-89535000D03*
X158830000Y-89535000D03*
X123270000Y-94615000D03*
X120570000Y-94615000D03*
D27*
X120650000Y-92155000D03*
X120650000Y-89455000D03*
D28*
X156440000Y-106140000D03*
X156440000Y-102140000D03*
X156440000Y-104800000D03*
X156440000Y-103480000D03*
X153440000Y-104800000D03*
X153440000Y-106140000D03*
X153440000Y-102140000D03*
X153440000Y-103480000D03*
D29*
X113665000Y-95095000D03*
X113665000Y-104295000D03*
D30*
X141605000Y-105234740D03*
X141605000Y-101775260D03*
D31*
X96710500Y-75181460D03*
X99250500Y-75181460D03*
X99250500Y-66169540D03*
X96710500Y-66169540D03*
D32*
X147894040Y-92979240D03*
X147894040Y-93479620D03*
X147894040Y-93980000D03*
X147894040Y-94480380D03*
D33*
X148859240Y-95945960D03*
X149359620Y-95945960D03*
X149860000Y-95945960D03*
X150360380Y-95945960D03*
X150860760Y-95945960D03*
D34*
X149235160Y-94604840D03*
X149235160Y-93355160D03*
X150484840Y-93355160D03*
X150484840Y-94604840D03*
D32*
X151825960Y-94980760D03*
X151825960Y-94480380D03*
X151825960Y-93980000D03*
X151825960Y-93479620D03*
X151825960Y-92979240D03*
D33*
X150860760Y-92014040D03*
X150360380Y-92014040D03*
X149860000Y-92014040D03*
X149359620Y-92014040D03*
X148859240Y-92014040D03*
D32*
X147894040Y-94980760D03*
D35*
X119888000Y-102776000D03*
X121158000Y-102776000D03*
X122428000Y-102776000D03*
X123698000Y-102776000D03*
X123698000Y-97376000D03*
X122428000Y-97376000D03*
X121158000Y-97376000D03*
X119888000Y-97376000D03*
D36*
X174560000Y-90035000D03*
X174560000Y-89035000D03*
X175960000Y-89035000D03*
X175960000Y-89535000D03*
X175960000Y-90035000D03*
D37*
X121158000Y-66040000D03*
D38*
X109728000Y-66040000D03*
X132588000Y-66167000D03*
M02*
